<svg width="200" height="200" viewBox="0 0 200 200" fill="none" xmlns="http://www.w3.org/2000/svg">
<path d="M18.1597 6.05327H187.651V127.119H18.1597V6.05327Z" fill="#FAE9F2"/>
<path d="M189.465 0.00184075C190.599 -0.0320576 191.697 0.403476 192.499 1.20559C193.301 2.00765 193.737 3.10523 193.703 4.23901V128.933C193.737 130.067 193.301 131.164 192.499 131.966C191.697 132.768 190.599 133.204 189.465 133.17H16.3455C15.2117 133.204 14.1142 132.768 13.312 131.966C12.5099 131.164 12.0744 130.067 12.1083 128.933V4.23901C12.0744 3.10517 12.5099 2.00765 13.312 1.20559C14.1141 0.403537 15.2117 -0.031997 16.3455 0.00184075H189.465ZM74.0246 69.2554L18.1597 123.093L18.1614 127.117L146.444 127.118C132.341 113.45 112.439 94.1626 86.7383 69.2554C83.2014 65.8124 77.5614 65.8124 74.0246 69.2554ZM146.15 85.6161C143.817 85.7423 141.624 86.7715 140.038 88.4854L128.425 100.695L155.684 127.113L187.65 127.117L187.645 125.194L152.629 88.0581C150.898 86.3879 148.555 85.5044 146.15 85.6161ZM187.65 6.05499H18.1614L18.157 114.636C30.5504 102.678 47.7467 86.0862 69.7459 64.8601C75.6596 59.0903 85.1033 59.0903 91.0169 64.8601L123.718 96.5436L135.27 84.3342C138.028 81.3722 141.858 79.6356 145.906 79.5115C149.959 79.3969 153.892 80.8893 156.847 83.6627L187.645 116.356L187.65 6.05499Z" fill="#CE2783"/>
<path d="M66.3967 199.249C66.0361 199.249 65.8884 199.179 65.8884 198.812V176.887H41.8585V198.741C41.8585 199.031 41.7166 199.249 41.3502 199.249H36.2664C35.9058 199.249 35.7639 199.102 35.7639 198.741V151.769C35.7639 151.409 35.9058 151.261 36.2664 151.261H41.3502C41.7167 151.261 41.8585 151.409 41.8585 151.698V171.371H65.8884V151.698C65.8884 151.409 66.0361 151.261 66.3258 151.261H71.6225C71.8412 151.261 71.989 151.409 71.989 151.698V198.812C71.989 199.179 71.8412 199.249 71.5515 199.249H66.3967Z" fill="#CE2783"/>
<path d="M112.6 198.812C112.523 199.179 112.382 199.249 112.092 199.249H84.5034C83.9951 199.249 83.9182 199.102 83.9182 198.67V151.769C83.9182 151.409 84.066 151.261 84.4266 151.261H110.927C111.294 151.261 111.365 151.332 111.436 151.698L112.015 156.268C112.092 156.563 112.015 156.776 111.654 156.776H89.9477V171.951H109.55C109.84 171.951 109.981 172.098 109.981 172.388V177.035C109.981 177.395 109.769 177.472 109.55 177.472H89.9477V193.734H113.032C113.398 193.734 113.469 193.876 113.398 194.166L112.6 198.812Z" fill="#CE2783"/>
<path d="M126.918 198.741C126.918 199.102 126.847 199.249 126.48 199.249H121.396C121.036 199.249 120.888 199.102 120.888 198.741V151.769C120.888 151.409 121.036 151.261 121.325 151.261H126.48C126.77 151.261 126.918 151.409 126.918 151.698L126.918 198.741Z" fill="#CE2783"/>
<path d="M170.414 197.872C170.414 198.233 170.337 198.522 170.047 198.593C167.653 199.61 164.313 199.977 160.246 199.977C148.122 199.977 135.708 192.936 135.708 175.149C135.708 160.624 145.728 150.534 161.192 150.534C166.057 150.534 168.888 151.042 170.485 151.84C170.703 151.917 170.845 152.13 170.845 152.425V157.284C170.845 157.722 170.555 157.722 170.337 157.651C168.309 156.563 165.04 155.978 161.044 155.978C149.647 155.978 141.879 163.385 141.879 175.001C141.879 190.176 153.276 194.455 160.902 194.455C164.603 194.455 167.292 194.166 169.976 193.149C170.266 193.078 170.414 193.078 170.414 193.439V197.872Z" fill="#CE2783"/>
<path d="M154.328 57.356C144.388 57.2426 136.364 49.1571 136.364 39.1978C136.364 29.1679 144.502 21.0387 154.58 21.0387C159.416 21.104 164.037 23.0487 167.486 26.4849C172.633 31.7299 174.111 39.5567 171.229 46.315C168.349 53.0721 161.678 57.4298 154.328 57.356ZM154.358 57.3572V54.3306L154.388 51.3041C159.291 51.3526 163.74 48.4462 165.661 43.941C167.581 39.437 166.597 34.2211 163.189 30.7491C160.879 28.4475 157.762 27.1354 154.539 27.0916C147.844 27.0916 142.417 32.5124 142.417 39.1978C142.417 45.8831 147.844 51.304 154.539 51.304V57.3572H154.358Z" fill="#CE2783"/>
</svg>
